<svg width="16" height="16" viewBox="0 0 16 16" fill="none" xmlns="http://www.w3.org/2000/svg">
<path d="M5.08749 1.4175H4.92999C5.01661 1.4175 5.08749 1.34662 5.08749 1.26V1.4175H11.0725V1.26C11.0725 1.34662 11.1434 1.4175 11.23 1.4175H11.0725V2.835H12.49V1.26C12.49 0.565031 11.925 0 11.23 0H4.92999C4.23502 0 3.66999 0.565031 3.66999 1.26V2.835H5.08749V1.4175ZM15.01 2.835H1.14999C0.80152 2.835 0.519989 3.11653 0.519989 3.465V4.095C0.519989 4.18162 0.590864 4.2525 0.677489 4.2525H1.86661L2.3529 14.5491C2.3844 15.2204 2.93958 15.75 3.61093 15.75H12.5491C13.2224 15.75 13.7756 15.2224 13.8071 14.5491L14.2934 4.2525H15.4825C15.5691 4.2525 15.64 4.18162 15.64 4.095V3.465C15.64 3.11653 15.3585 2.835 15.01 2.835ZM12.3975 14.3325H3.76252L3.28608 4.2525H12.8739L12.3975 14.3325Z" fill="#32DC8A"/>
</svg>
