<svg width="29" height="29" viewBox="0 0 29 29" fill="none" xmlns="http://www.w3.org/2000/svg">
<path d="M15.5 9.1001C15.5 8.54781 15.0523 8.1001 14.5 8.1001C13.9477 8.1001 13.5 8.54781 13.5 9.1001H15.5ZM13.5 19.9001C13.5 20.4524 13.9477 20.9001 14.5 20.9001C15.0523 20.9001 15.5 20.4524 15.5 19.9001H13.5ZM19.9 15.5001C20.4523 15.5001 20.9 15.0524 20.9 14.5001C20.9 13.9478 20.4523 13.5001 19.9 13.5001V15.5001ZM9.09998 13.5001C8.54769 13.5001 8.09998 13.9478 8.09998 14.5001C8.09998 15.0524 8.54769 15.5001 9.09998 15.5001V13.5001ZM13.5 9.1001V14.5001H15.5V9.1001H13.5ZM13.5 14.5001V19.9001H15.5V14.5001H13.5ZM14.5 15.5001H19.9V13.5001H14.5V15.5001ZM14.5 13.5001H9.09998V15.5001H14.5V13.5001ZM27 14.5C27 21.4036 21.4036 27 14.5 27V29C22.5081 29 29 22.5081 29 14.5H27ZM14.5 27C7.59644 27 2 21.4036 2 14.5H0C0 22.5081 6.49187 29 14.5 29V27ZM2 14.5C2 7.59644 7.59644 2 14.5 2V0C6.49187 0 0 6.49187 0 14.5H2ZM14.5 2C21.4036 2 27 7.59644 27 14.5H29C29 6.49187 22.5081 0 14.5 0V2Z" fill="black"/>
</svg>
