<svg width="134" height="40" viewBox="0 0 134 40" fill="none" xmlns="http://www.w3.org/2000/svg">
<path d="M18.548 36.65V37.514H0.62V36.65H4.076V1.064H0.62V0.199997H31.238V13.052H30.374C30.374 9.02 29.528 6.014 27.836 4.034C26.18 2.054 23.282 1.064 19.142 1.064H15.092V17.696H17.63C22.382 17.696 24.758 15.122 24.758 9.974H25.622V26.444H24.758C24.758 23.852 24.11 21.89 22.814 20.558C21.554 19.226 19.754 18.56 17.414 18.56H15.092V36.65H18.548ZM48.1435 39.04C45.4395 39.04 43.1168 38.104 41.1755 36.232C39.3035 34.2907 38.3675 31.968 38.3675 29.264C38.3675 26.4907 39.3035 24.168 41.1755 22.296C43.1168 20.3547 45.4741 19.384 48.2475 19.384C51.0208 19.384 53.3435 20.3547 55.2155 22.296C57.0875 24.168 58.0235 26.4907 58.0235 29.264C58.0235 31.968 57.0528 34.2907 55.1115 36.232C53.2395 38.104 50.9168 39.04 48.1435 39.04ZM78.8153 39.04C76.1113 39.04 73.7887 38.104 71.8473 36.232C69.9753 34.2907 69.0393 31.968 69.0393 29.264C69.0393 26.4907 69.9753 24.168 71.8473 22.296C73.7887 20.3547 76.146 19.384 78.9193 19.384C81.6927 19.384 84.0153 20.3547 85.8873 22.296C87.7593 24.168 88.6953 26.4907 88.6953 29.264C88.6953 31.968 87.7247 34.2907 85.7833 36.232C83.9113 38.104 81.5887 39.04 78.8153 39.04ZM110.453 36.65H112.235C115.475 36.65 117.887 35.282 119.471 32.546C121.055 29.774 121.847 25.112 121.847 18.56C121.847 12.008 121.037 7.472 119.417 4.952C117.833 2.396 115.565 1.118 112.613 1.118H110.453V36.65ZM113.315 37.514H95.9812V36.65H99.4372V1.118H95.9812V0.199997H112.775C120.083 0.199997 125.411 1.838 128.759 5.114C132.143 8.354 133.835 12.782 133.835 18.398C133.835 23.906 132.287 28.388 129.191 31.844C127.607 33.644 125.465 35.048 122.765 36.056C120.065 37.028 116.915 37.514 113.315 37.514Z" fill="#32DC8A"/>
</svg>
