<svg width="17" height="17" viewBox="0 0 17 17" fill="none" xmlns="http://www.w3.org/2000/svg">
<path d="M7.7093 2.5813H2.49096C2.09553 2.5813 1.7163 2.73838 1.43669 3.01799C1.15708 3.2976 1 3.67683 1 4.07225V14.5089C1 14.9044 1.15708 15.2836 1.43669 15.5632C1.7163 15.8428 2.09553 15.9999 2.49096 15.9999H12.9276C13.3231 15.9999 13.7023 15.8428 13.9819 15.5632C14.2615 15.2836 14.4186 14.9044 14.4186 14.5089V9.2906" stroke="#32DC8A" stroke-width="1.49096" stroke-linecap="round" stroke-linejoin="round"/>
<path d="M13.3004 1.46318C13.597 1.16661 13.9992 1 14.4186 1C14.838 1 15.2403 1.16661 15.5368 1.46318C15.8334 1.75975 16 2.16198 16 2.5814C16 3.00081 15.8334 3.40304 15.5368 3.69961L8.45478 10.7817L5.47287 11.5271L6.21835 8.54522L13.3004 1.46318Z" stroke="#32DC8A" stroke-width="1.49096" stroke-linecap="round" stroke-linejoin="round"/>
</svg>
