<svg width="50" height="50" viewBox="0 0 50 50" fill="none" xmlns="http://www.w3.org/2000/svg">
<path d="M6.24999 50C4.59239 50 3.00268 49.3415 1.83058 48.1694C0.658476 46.9973 -5.79953e-06 45.4076 -5.72707e-06 43.75L-4.08789e-06 6.25C-4.01544e-06 4.5924 0.658478 3.00268 1.83058 1.83058C3.00268 0.658478 4.59239 -1.98483e-06 6.25 -1.91237e-06L43.75 -2.73196e-07C45.4076 -2.0074e-07 46.9973 0.65848 48.1694 1.83058C49.3415 3.00269 50 4.5924 50 6.25L50 43.75C50 45.4076 49.3415 46.9973 48.1694 48.1694C46.9973 49.3415 45.4076 50 43.75 50L6.24999 50ZM26.5625 35.9375L26.5625 17.8344L33.2687 24.5438C33.5621 24.8371 33.9601 25.002 34.375 25.002C34.7899 25.002 35.1879 24.8371 35.4812 24.5438C35.7746 24.2504 35.9395 23.8524 35.9395 23.4375C35.9395 23.0226 35.7746 22.6246 35.4812 22.3313L26.1062 12.9563C25.9611 12.8107 25.7887 12.6953 25.5989 12.6165C25.409 12.5378 25.2055 12.4972 25 12.4972C24.7945 12.4972 24.591 12.5378 24.4011 12.6165C24.2113 12.6953 24.0389 12.8107 23.8937 12.9563L14.5187 22.3312C14.2253 22.6246 14.0605 23.0226 14.0605 23.4375C14.0605 23.8524 14.2253 24.2504 14.5187 24.5438C14.8121 24.8371 15.2101 25.002 15.625 25.002C16.0399 25.002 16.4378 24.8371 16.7312 24.5438L23.4375 17.8344L23.4375 35.9375C23.4375 36.3519 23.6021 36.7493 23.8951 37.0424C24.1882 37.3354 24.5856 37.5 25 37.5C25.4144 37.5 25.8118 37.3354 26.1049 37.0424C26.3979 36.7493 26.5625 36.3519 26.5625 35.9375Z" fill="#32DC8A"/>
</svg>
